# xmcd
#
# Track frame offsets:
#	150
#	17220
#	35075
#	53518
#	68831
#	90931
#	110289
#	128732
#	143600
#	160676
#
# Disc length: 2397 seconds
#
# Revision: 0
# Processed by: cddbd v1.5.2PL0 Copyright (c) Steve Scherf et al.
# Submitted via: dBpowerAMP V4.0
#
DISCID=75095b0a
DTITLE=Elvis Baker - Unknown Soul
DYEAR=2007
DGENRE=Country
TTITLE0=He Cried Daddy
TTITLE1=Where Forever Begins
TTITLE2=She Thinks I Still Care
TTITLE3=I Ain't Ready
TTITLE4=You Are My sunshine
TTITLE5=Unknown Soul
TTITLE6=Sing Me Back Home
TTITLE7=Working Man
TTITLE8=All the Above
TTITLE9=Amazing Grace
EXTD=
EXTT0=
EXTT1=
EXTT2=
EXTT3=
EXTT4=
EXTT5=
EXTT6=
EXTT7=
EXTT8=
EXTT9=
PLAYORDER=
